<svg xmlns="http://www.w3.org/2000/svg" viewBox="0 0 298.6 83.85"><defs><style>.cls-1{fill:#666;}.cls-2{fill:none;stroke:#000;stroke-miterlimit:10;stroke-width:4px;stroke-dasharray:12;}.cls-3{fill:red;}.cls-4{fill:#fff;}</style></defs><title>conitos</title><g id="Capa_2" data-name="Capa 2"><ellipse class="cls-1" cx="55.3" cy="79.85" rx="25.5" ry="4"/><ellipse class="cls-1" cx="150.3" cy="40.85" rx="25.5" ry="4"/><ellipse class="cls-1" cx="237.3" cy="79.85" rx="25.5" ry="4"/></g><g id="Capa_1" data-name="Capa 1"><path class="cls-2" d="M1,62C34.84,47.28,61.5,46,79.5,47.5,112.17,50.23,119.73,62.42,152,62c31.64-.41,38.2-12.3,70-15,17.89-1.52,43.64-.12,76,14" transform="translate(-0.2 -0.15)"/><path class="cls-3" d="M73.61,74.22H38.35v3.13c0,2.23,7.91,4,17.63,4s17.63-1.8,17.63-4V74.22Z" transform="translate(-0.2 -0.15)"/><path class="cls-3" d="M56,70.25c9.72,0,17.63,1.78,17.63,4s-7.91,4-17.63,4-17.63-1.78-17.63-4,7.91-4,17.63-4Z" transform="translate(-0.2 -0.15)"/><path class="cls-3" d="M67.21,71.67l-7.95-30A3.36,3.36,0,0,0,56,39.15h-.07a3.34,3.34,0,0,0-3.25,2.5l-7.94,30a1.25,1.25,0,0,0-.14.48c0,1.88,5.1,3.42,11.37,3.42S67.34,74,67.34,72.15a.87.87,0,0,0-.13-.48Z" transform="translate(-0.2 -0.15)"/><path class="cls-3" d="M63.3,56.91,62,52.08c-1.91.08-3.94.12-6,.12s-4.13,0-6-.12l-1.28,4.83C51,57,53.45,57,56,57S61,57,63.3,56.91Z" transform="translate(-0.2 -0.15)"/><path class="cls-4" d="M56,52.2c2.1,0,4.13,0,6-.12l-1.06-4c-1.6,0-3.28.08-5,.08s-3.39,0-5-.08l-1.06,4C51.85,52.16,53.88,52.2,56,52.2Z" transform="translate(-0.2 -0.15)"/><path class="cls-4" d="M64.36,60.92l-1.06-4C61,57,58.51,57,56,57s-5,0-7.33-.13l-1.06,4c2.61.11,5.45.17,8.39.17S61.75,61,64.36,60.92Z" transform="translate(-0.2 -0.15)"/><path class="cls-4" d="M66.5,69l-1.07-4c-3,.1-6.17.15-9.45.15s-6.5-.05-9.46-.15l-1.06,4c3.26.12,6.82.18,10.52.18S63.24,69.11,66.5,69Z" transform="translate(-0.2 -0.15)"/><path class="cls-3" d="M167.61,35.22H132.35v3.13c0,2.23,7.91,4,17.63,4s17.63-1.8,17.63-4V35.22Z" transform="translate(-0.2 -0.15)"/><path class="cls-3" d="M150,31.25c9.72,0,17.63,1.78,17.63,4s-7.91,4-17.63,4-17.63-1.78-17.63-4,7.91-4,17.63-4Z" transform="translate(-0.2 -0.15)"/><path class="cls-3" d="M161.21,32.67l-8-30A3.36,3.36,0,0,0,150,.15h-.07a3.34,3.34,0,0,0-3.25,2.5l-7.94,30a1.25,1.25,0,0,0-.14.48c0,1.88,5.1,3.42,11.37,3.42s11.36-1.54,11.36-3.42a.87.87,0,0,0-.13-.48Z" transform="translate(-0.2 -0.15)"/><path class="cls-3" d="M157.3,17.91,156,13.08c-1.91.08-3.94.12-6,.12s-4.13,0-6-.12l-1.28,4.83c2.31.09,4.8.13,7.33.13S155,18,157.3,17.91Z" transform="translate(-0.2 -0.15)"/><path class="cls-4" d="M150,13.2c2.1,0,4.13,0,6-.12l-1.06-4c-1.6,0-3.28.08-5,.08s-3.39,0-5-.08l-1.06,4C145.85,13.16,147.88,13.2,150,13.2Z" transform="translate(-0.2 -0.15)"/><path class="cls-4" d="M158.36,21.92l-1.06-4C155,18,152.51,18,150,18s-5,0-7.33-.13l-1.06,4c2.61.11,5.45.17,8.39.17S155.75,22,158.36,21.92Z" transform="translate(-0.2 -0.15)"/><path class="cls-4" d="M160.5,30l-1.07-4c-3,.1-6.17.15-9.45.15s-6.5-.05-9.46-.15l-1.06,4c3.26.12,6.82.18,10.52.18S157.24,30.11,160.5,30Z" transform="translate(-0.2 -0.15)"/><path class="cls-3" d="M255.61,74.22H220.35v3.13c0,2.23,7.91,4,17.63,4s17.63-1.8,17.63-4V74.22Z" transform="translate(-0.2 -0.15)"/><path class="cls-3" d="M238,70.25c9.72,0,17.63,1.78,17.63,4s-7.91,4-17.63,4-17.63-1.78-17.63-4,7.91-4,17.63-4Z" transform="translate(-0.2 -0.15)"/><path class="cls-3" d="M249.21,71.67l-8-30a3.36,3.36,0,0,0-3.25-2.5h-.07a3.34,3.34,0,0,0-3.25,2.5l-7.94,30a1.25,1.25,0,0,0-.14.48c0,1.88,5.1,3.42,11.37,3.42s11.36-1.54,11.36-3.42a.87.87,0,0,0-.13-.48Z" transform="translate(-0.2 -0.15)"/><path class="cls-3" d="M245.3,56.91,244,52.08c-1.91.08-3.94.12-6,.12s-4.13,0-6-.12l-1.28,4.83c2.31.09,4.8.13,7.33.13S243,57,245.3,56.91Z" transform="translate(-0.2 -0.15)"/><path class="cls-4" d="M238,52.2c2.1,0,4.13,0,6-.12l-1.06-4c-1.6,0-3.28.08-5,.08s-3.39,0-5-.08l-1.06,4C233.85,52.16,235.88,52.2,238,52.2Z" transform="translate(-0.2 -0.15)"/><path class="cls-4" d="M246.36,60.92l-1.06-4C243,57,240.51,57,238,57s-5,0-7.33-.13l-1.06,4c2.61.11,5.45.17,8.39.17S243.75,61,246.36,60.92Z" transform="translate(-0.2 -0.15)"/><path class="cls-4" d="M248.5,69l-1.07-4c-3,.1-6.17.15-9.45.15s-6.5-.05-9.46-.15l-1.06,4c3.26.12,6.82.18,10.52.18S245.24,69.11,248.5,69Z" transform="translate(-0.2 -0.15)"/></g></svg>