<svg id="Capa_1" data-name="Capa 1" xmlns="http://www.w3.org/2000/svg" viewBox="0 0 62 62"><defs><style>.cls-1{fill:red;}.cls-2{fill:#fff;}</style></defs><title>contactoS</title><path class="cls-1" d="M61,31A30,30,0,1,0,26.31,60.64v-21H18.7V31h7.61V24.39c0-7.52,4.48-11.67,11.33-11.67a46.55,46.55,0,0,1,6.72.58v7.39H40.58c-3.73,0-4.89,2.31-4.89,4.68V31H44l-1.33,8.67h-7v21A30,30,0,0,0,61,31Z"/><path class="cls-2" d="M42.68,39.67,44,31H35.69V25.37c0-2.37,1.16-4.68,4.89-4.68h3.78V13.3a46.55,46.55,0,0,0-6.72-.58c-6.85,0-11.33,4.15-11.33,11.67V31H18.7v8.67h7.61v21a30.73,30.73,0,0,0,9.38,0v-21Z"/></svg>