<svg id="Capa_1" data-name="Capa 1" xmlns="http://www.w3.org/2000/svg" viewBox="0 0 60 60"><defs><style>.cls-1{fill:#fff;}.cls-2{fill:red;}</style></defs><title>contactoS_fb</title><path class="cls-1" d="M42.1,33.83l1.3-8.76H35.1V19.44c0-2.42,1.2-4.74,4.9-4.74h3.8V7.25a50.53,50.53,0,0,0-6.7-.6c-6.9,0-11.3,4.23-11.3,11.78v6.64H18.2v8.76h7.6V55a29.07,29.07,0,0,0,9.4,0V33.83Z" transform="translate(-1 -1)"/><path class="cls-2" d="M31,61h0A30,30,0,0,1,1,31H1A30,30,0,0,1,31,1h0A30,30,0,0,1,61,31h0A30,30,0,0,1,31,61Z" transform="translate(-1 -1)"/><path class="cls-1" d="M48.69,31A17.69,17.69,0,1,0,28.24,48.59V36.15h-4.5V31h4.5V27.08c0-4.47,2.64-6.93,6.68-6.93a27,27,0,0,1,4,.35v4.38H36.65a2.57,2.57,0,0,0-2.89,2.78V31h4.91l-.78,5.15H33.76V48.59A17.77,17.77,0,0,0,48.69,31Z" transform="translate(-1 -1)"/><path class="cls-2" d="M37.89,36.15,38.67,31H33.76V27.66a2.57,2.57,0,0,1,2.89-2.78h2.23V20.5a27,27,0,0,0-4-.35c-4,0-6.68,2.46-6.68,6.93V31h-4.5v5.15h4.5V48.59a17.42,17.42,0,0,0,5.52,0V36.15Z" transform="translate(-1 -1)"/></svg>