<svg id="Capa_1" data-name="Capa 1" xmlns="http://www.w3.org/2000/svg" viewBox="0 0 221.79 64.88"><defs><style>.cls-1{fill:red;}.cls-2,.cls-3{fill:none;}.cls-3{stroke:red;stroke-miterlimit:10;stroke-width:2px;}</style></defs><title>horario atencion curvas sin reloj</title><path class="cls-1" d="M111.8,30a2.46,2.46,0,0,1-1.37-.4,2.57,2.57,0,0,1-1-1.14,4.78,4.78,0,0,1,0-3.64,2.57,2.57,0,0,1,1-1.14,2.6,2.6,0,0,1,2.74,0,2.57,2.57,0,0,1,1,1.14,5,5,0,0,1,0,3.64,2.57,2.57,0,0,1-1,1.14A2.46,2.46,0,0,1,111.8,30Zm0-.84a1.47,1.47,0,0,0,.91-.28,1.89,1.89,0,0,0,.61-.84,4.26,4.26,0,0,0,0-2.79,1.86,1.86,0,0,0-.61-.85,1.47,1.47,0,0,0-.91-.28,1.49,1.49,0,0,0-.91.28,1.86,1.86,0,0,0-.61.85,3.68,3.68,0,0,0-.22,1.39,3.91,3.91,0,0,0,.22,1.4,1.89,1.89,0,0,0,.61.84A1.55,1.55,0,0,0,111.8,29.19Z"/><path class="cls-1" d="M118.67,30a3.62,3.62,0,0,1-1.38-.24,2.08,2.08,0,0,1-.9-.67,1.79,1.79,0,0,1,0-2,1.9,1.9,0,0,1,.91-.64,4.14,4.14,0,0,1,1.4-.21,4.19,4.19,0,0,1,1.41.21,2,2,0,0,1,.9.62,1.63,1.63,0,0,1,.31,1,1.7,1.7,0,0,1-.32,1,2,2,0,0,1-.91.67A3.6,3.6,0,0,1,118.67,30Zm0-3.25a3.45,3.45,0,0,1-1.27-.2,1.74,1.74,0,0,1-.81-.58,1.46,1.46,0,0,1-.28-.9,1.54,1.54,0,0,1,.3-1,1.87,1.87,0,0,1,.82-.62,3.8,3.8,0,0,1,2.49,0,2,2,0,0,1,.83.62,1.54,1.54,0,0,1,.3,1,1.46,1.46,0,0,1-.28.9,1.77,1.77,0,0,1-.82.58A3.47,3.47,0,0,1,118.67,26.78Zm0,2.49a2,2,0,0,0,1.23-.33,1.06,1.06,0,0,0,.25-1.48,1,1,0,0,0-.25-.25,2.59,2.59,0,0,0-2.45,0,1.07,1.07,0,0,0-.24,1.49,1.36,1.36,0,0,0,.24.24A2,2,0,0,0,118.67,29.27Zm0-3.09a1.76,1.76,0,0,0,1.07-.28,1,1,0,0,0,.21-1.33,1,1,0,0,0-.21-.21,1.82,1.82,0,0,0-1.06-.28,1.78,1.78,0,0,0-1,.28.87.87,0,0,0-.39.78.88.88,0,0,0,.38.76A1.71,1.71,0,0,0,118.67,26.18Z"/><path class="cls-1" d="M123.51,26.22a.63.63,0,0,1-.45-.18.65.65,0,0,1,0-.92.62.62,0,0,1,1.06.45h0a.61.61,0,0,1-.18.46A.58.58,0,0,1,123.51,26.22Zm0,3.79a.55.55,0,0,1-.45-.19.66.66,0,0,1,0-.92h0a.63.63,0,0,1,.45-.18.58.58,0,0,1,.43.18.68.68,0,0,1,0,.92A.59.59,0,0,1,123.51,30Z"/><path class="cls-1" d="M127.76,30a4.32,4.32,0,0,1-1.34-.22,3.09,3.09,0,0,1-1.07-.58l.43-.74a2.58,2.58,0,0,0,.86.51,3.07,3.07,0,0,0,1.12.19,1.78,1.78,0,0,0,1.14-.31,1.08,1.08,0,0,0,.16-1.52,1.21,1.21,0,0,0-.16-.16,1.94,1.94,0,0,0-1.24-.31h-.52v-.66l2-2.4.13.38h-3.59v-.82H130V24L128,26.42l-.49-.29h.31a2.62,2.62,0,0,1,1.79.53,1.77,1.77,0,0,1,.59,1.36,2,2,0,0,1-.27,1,1.81,1.81,0,0,1-.82.73A3.09,3.09,0,0,1,127.76,30Z"/><path class="cls-1" d="M134.53,30a2.46,2.46,0,0,1-1.37-.4,2.57,2.57,0,0,1-1-1.14,4.78,4.78,0,0,1,0-3.64,2.57,2.57,0,0,1,1-1.14,2.6,2.6,0,0,1,2.74,0,2.57,2.57,0,0,1,1,1.14,5,5,0,0,1,0,3.64,2.57,2.57,0,0,1-1,1.14A2.46,2.46,0,0,1,134.53,30Zm0-.84a1.47,1.47,0,0,0,.91-.28,1.89,1.89,0,0,0,.61-.84,3.91,3.91,0,0,0,.22-1.4,4.13,4.13,0,0,0-.22-1.39,1.86,1.86,0,0,0-.61-.85,1.47,1.47,0,0,0-.91-.28,1.49,1.49,0,0,0-.91.28,1.86,1.86,0,0,0-.61.85,3.68,3.68,0,0,0-.22,1.39,3.91,3.91,0,0,0,.22,1.4,1.89,1.89,0,0,0,.61.84A1.49,1.49,0,0,0,134.53,29.19Z"/><path class="cls-1" d="M144,30a2.47,2.47,0,0,1-1-.19,1.48,1.48,0,0,1-.64-.52,1.33,1.33,0,0,1-.23-.75,1.6,1.6,0,0,1,.19-.74,1.4,1.4,0,0,1,.63-.52,2.82,2.82,0,0,1,1.18-.2h1.57v.65h-1.53a1.34,1.34,0,0,0-.91.22.76.76,0,0,0-.24.55.67.67,0,0,0,.29.58,1.29,1.29,0,0,0,.81.22,1.69,1.69,0,0,0,.88-.22,1.23,1.23,0,0,0,.55-.66l.18.62a1.39,1.39,0,0,1-.63.7A2.23,2.23,0,0,1,144,30Zm1.63-.06V29l-.05-.2V26.91a1.14,1.14,0,0,0-.33-.88,1.39,1.39,0,0,0-1-.31,2.54,2.54,0,0,0-.86.14,2.34,2.34,0,0,0-.71.39l-.35-.67a2.75,2.75,0,0,1,.93-.48,3.84,3.84,0,0,1,1.12-.16,2.26,2.26,0,0,1,1.58.49,2,2,0,0,1,.55,1.52v3Z"/><path class="cls-1" d="M152.81,30V23.77l.41.44h-1.93v-.82h2.41V30Z"/><path class="cls-1" d="M158.47,30a3.62,3.62,0,0,1-1.38-.24,2.08,2.08,0,0,1-.9-.67,1.79,1.79,0,0,1,0-2,1.85,1.85,0,0,1,.89-.62,4.14,4.14,0,0,1,1.4-.21,4.19,4.19,0,0,1,1.41.21,2,2,0,0,1,.9.62,1.63,1.63,0,0,1,.31,1,1.7,1.7,0,0,1-.32,1,2,2,0,0,1-.91.67A3.67,3.67,0,0,1,158.47,30Zm0-3.25a3.45,3.45,0,0,1-1.27-.2,1.74,1.74,0,0,1-.81-.58,1.46,1.46,0,0,1-.28-.9,1.54,1.54,0,0,1,.3-1,1.87,1.87,0,0,1,.82-.62,3.8,3.8,0,0,1,2.49,0,2,2,0,0,1,.83.62,1.54,1.54,0,0,1,.3,1,1.46,1.46,0,0,1-.28.9,1.74,1.74,0,0,1-.81.58A3.52,3.52,0,0,1,158.47,26.78Zm0,2.49a2,2,0,0,0,1.23-.33,1.06,1.06,0,0,0,.25-1.48,1,1,0,0,0-.25-.25,2.59,2.59,0,0,0-2.45,0A1.07,1.07,0,0,0,157,28.7a1.36,1.36,0,0,0,.24.24A2,2,0,0,0,158.47,29.27Zm0-3.09a1.76,1.76,0,0,0,1.07-.28,1,1,0,0,0,.21-1.33,1,1,0,0,0-.21-.21,1.82,1.82,0,0,0-1.06-.28,1.78,1.78,0,0,0-1,.28.87.87,0,0,0-.39.78.88.88,0,0,0,.38.76A1.71,1.71,0,0,0,158.47,26.18Z"/><path class="cls-1" d="M163.29,26.22a.63.63,0,0,1-.45-.18.65.65,0,0,1,0-.92.62.62,0,0,1,1.06.45h0a.61.61,0,0,1-.18.46A.58.58,0,0,1,163.29,26.22Zm0,3.79a.55.55,0,0,1-.45-.19.66.66,0,0,1,0-.92h0a.63.63,0,0,1,.45-.18.58.58,0,0,1,.43.18.68.68,0,0,1,0,.92A.59.59,0,0,1,163.29,30Z"/><path class="cls-1" d="M167.56,30a4.32,4.32,0,0,1-1.34-.22,3.09,3.09,0,0,1-1.07-.58l.43-.74a2.58,2.58,0,0,0,.86.51,3.07,3.07,0,0,0,1.12.19,1.78,1.78,0,0,0,1.14-.31,1.08,1.08,0,0,0,.16-1.52l-.16-.16a1.94,1.94,0,0,0-1.24-.31h-.52v-.66l2-2.4.13.38h-3.59v-.82h4.33V24l-1.94,2.39-.49-.29h.31a2.62,2.62,0,0,1,1.79.53,1.77,1.77,0,0,1,.59,1.36,2,2,0,0,1-.27,1,1.81,1.81,0,0,1-.82.73A3.14,3.14,0,0,1,167.56,30Z"/><path class="cls-1" d="M174.29,30a2.46,2.46,0,0,1-1.37-.4,2.64,2.64,0,0,1-.95-1.14,4.78,4.78,0,0,1,0-3.64,2.64,2.64,0,0,1,.95-1.14,2.6,2.6,0,0,1,2.74,0,2.57,2.57,0,0,1,1,1.14,5,5,0,0,1,0,3.64,2.57,2.57,0,0,1-1,1.14A2.46,2.46,0,0,1,174.29,30Zm0-.84a1.47,1.47,0,0,0,.91-.28,1.89,1.89,0,0,0,.61-.84,3.91,3.91,0,0,0,.22-1.4,4.13,4.13,0,0,0-.22-1.39,1.85,1.85,0,0,0-.52-.8,1.47,1.47,0,0,0-.91-.28,1.49,1.49,0,0,0-.91.28,1.86,1.86,0,0,0-.61.85,3.68,3.68,0,0,0-.22,1.39,3.91,3.91,0,0,0,.22,1.4,1.89,1.89,0,0,0,.61.84A1.59,1.59,0,0,0,174.29,29.19Z"/><path d="M108.89,16.82v-10H110v9.09h5.6v.91Z"/><path d="M120.29,16.89a3.9,3.9,0,0,1-1.68-.35,2.6,2.6,0,0,1-1.1-1.08,3.55,3.55,0,0,1-.4-1.78V9.32h1v4.24a2.48,2.48,0,0,0,.59,1.81,2.2,2.2,0,0,0,1.67.61,2.81,2.81,0,0,0,1.36-.32,2.24,2.24,0,0,0,.89-.94,3.37,3.37,0,0,0,.3-1.47V9.32h1v7.5h-1V14.76l.15.38a2.72,2.72,0,0,1-1.1,1.29A3.32,3.32,0,0,1,120.29,16.89Z"/><path d="M130.81,9.25a3.57,3.57,0,0,1,1.61.35,2.46,2.46,0,0,1,1.08,1.06,3.75,3.75,0,0,1,.39,1.8v4.36h-1V12.56a2.49,2.49,0,0,0-.6-1.79,2.28,2.28,0,0,0-1.67-.61,2.93,2.93,0,0,0-1.39.32,2.29,2.29,0,0,0-.92.93,3.25,3.25,0,0,0-.32,1.47v3.94h-1V9.32h1v2.06l-.16-.39A2.75,2.75,0,0,1,129,9.71,3.66,3.66,0,0,1,130.81,9.25Z"/><path d="M140,16.89a4.09,4.09,0,0,1-2-.49A3.63,3.63,0,0,1,136.63,15a3.89,3.89,0,0,1-.5-2,4,4,0,0,1,.48-2A3.56,3.56,0,0,1,139.8,9.2a3.63,3.63,0,0,1,1.88.48A3.33,3.33,0,0,1,143,11a4,4,0,0,1,.48,2v.32h-6.53v-.76h6l-.4.3a3,3,0,0,0-.43-1.4,2.53,2.53,0,0,0-1-1,2.6,2.6,0,0,0-1.39-.36,2.69,2.69,0,0,0-1.38.36,2.53,2.53,0,0,0-1,1A3.11,3.11,0,0,0,137,13v.16a2.93,2.93,0,0,0,.37,1.5,2.62,2.62,0,0,0,1.06,1A3.21,3.21,0,0,0,140,16a3.5,3.5,0,0,0,1.28-.24,2.62,2.62,0,0,0,1-.74l.57.66a3.31,3.31,0,0,1-1.25.91A4.09,4.09,0,0,1,140,16.89Z"/><path d="M147.68,16.89a5.5,5.5,0,0,1-1.75-.26,3.79,3.79,0,0,1-1.31-.67l.46-.8a4.32,4.32,0,0,0,1.17.6,4.77,4.77,0,0,0,1.5.25,2.7,2.7,0,0,0,1.55-.34,1,1,0,0,0,.47-.89.84.84,0,0,0-.27-.65,1.64,1.64,0,0,0-.69-.36,8.45,8.45,0,0,0-1-.21c-.35-.05-.7-.12-1.05-.2a4,4,0,0,1-.95-.33,1.67,1.67,0,0,1-.95-1.61,1.81,1.81,0,0,1,.34-1.1,2.22,2.22,0,0,1,1-.76,4.1,4.1,0,0,1,1.62-.28,5.6,5.6,0,0,1,1.47.2,4.38,4.38,0,0,1,1.2.51l-.45.81a3.58,3.58,0,0,0-1.07-.49,4.41,4.41,0,0,0-1.14-.15,2.52,2.52,0,0,0-1.49.35,1.07,1.07,0,0,0-.48.89.87.87,0,0,0,.26.68,1.82,1.82,0,0,0,.7.37,6.9,6.9,0,0,0,1,.23,9.3,9.3,0,0,1,1,.2,4.35,4.35,0,0,1,1,.33,1.74,1.74,0,0,1,.7.59,1.69,1.69,0,0,1,.26,1,1.86,1.86,0,0,1-.36,1.14,2.33,2.33,0,0,1-1.06.74A4.76,4.76,0,0,1,147.68,16.89Z"/><path d="M158.9,16.89a3.64,3.64,0,0,1-1.46-.27,2.13,2.13,0,0,1-1-.78,2.14,2.14,0,0,1-.05-2.2,2.07,2.07,0,0,1,.91-.77,4.34,4.34,0,0,1,1.71-.29h2.58v.76h-2.5a2.25,2.25,0,0,0-1.51.38,1.26,1.26,0,0,0-.42,1,1.23,1.23,0,0,0,.5,1,2.23,2.23,0,0,0,1.4.38,2.76,2.76,0,0,0,1.48-.39,2.26,2.26,0,0,0,.9-1.14l.23.7a2.34,2.34,0,0,1-1,1.19A3.23,3.23,0,0,1,158.9,16.89Zm2.59-.07v-4.7a1.91,1.91,0,0,0-.53-1.47,2.27,2.27,0,0,0-1.6-.52,4.06,4.06,0,0,0-1.38.25,3.47,3.47,0,0,0-1.12.64l-.45-.76a4,4,0,0,1,1.32-.78,5.61,5.61,0,0,1,1.68-.26,3.25,3.25,0,0,1,2.26.72,2.86,2.86,0,0,1,.79,2.19v4.66Z"/><path d="M172.42,16.82,168,6.82h1.14l4.16,9.42h-.62l4.17-9.42h1.07l-4.43,10Z"/><path d="M179.79,7.66a.77.77,0,0,1-.5-.18.73.73,0,0,1-.21-.52.67.67,0,0,1,.21-.48.74.74,0,0,1,.53-.21.78.78,0,0,1,.53.2.67.67,0,0,1,.21.5.78.78,0,0,1-.27.51A.77.77,0,0,1,179.79,7.66Zm-.5,9.16V9.32h1v7.5Z"/><path d="M186.51,16.89a4.1,4.1,0,0,1-2.06-.49A3.63,3.63,0,0,1,183.06,15a3.89,3.89,0,0,1-.5-2,4,4,0,0,1,.48-2,3.86,3.86,0,0,1,5.12-1.31,3.42,3.42,0,0,1,1.3,1.34,4.21,4.21,0,0,1,.47,2v.32h-6.64v-.76h6l-.4.3a2.93,2.93,0,0,0-.32-1.45,2.61,2.61,0,0,0-.95-1,2.58,2.58,0,0,0-1.33-.36,2.7,2.7,0,0,0-1.39.36,2.53,2.53,0,0,0-1,1,3.11,3.11,0,0,0-.34,1.47v.16a2.91,2.91,0,0,0,.38,1.5,2.55,2.55,0,0,0,1.06,1,3.21,3.21,0,0,0,1.55.36,3.45,3.45,0,0,0,1.27-.24,2.72,2.72,0,0,0,1-.74l.57.66a3.31,3.31,0,0,1-1.25.91A4.17,4.17,0,0,1,186.51,16.89Z"/><path d="M192.15,16.82V9.32h1v2l-.1-.35a2.45,2.45,0,0,1,1.06-1.31A3.49,3.49,0,0,1,196,9.21v1h-.23a2.38,2.38,0,0,0-1.85.72,2.86,2.86,0,0,0-.67,2v3.83Z"/><path d="M201.8,9.25a3.56,3.56,0,0,1,1.6.35,2.43,2.43,0,0,1,1.09,1.06,3.75,3.75,0,0,1,.39,1.8v4.36h-1V12.56a2.44,2.44,0,0,0-.6-1.79,2.27,2.27,0,0,0-1.66-.61,2.93,2.93,0,0,0-1.39.32,2.29,2.29,0,0,0-.92.93,3.25,3.25,0,0,0-.32,1.47v3.94h-1V9.32h1v2.06l-.16-.39A2.78,2.78,0,0,1,200,9.71,3.66,3.66,0,0,1,201.8,9.25Z"/><path d="M211,16.89A4.1,4.1,0,0,1,209,16.4,3.54,3.54,0,0,1,207.57,15a3.79,3.79,0,0,1-.5-2,4,4,0,0,1,.48-2,3.54,3.54,0,0,1,1.31-1.35,3.87,3.87,0,0,1,3.76,0A3.33,3.33,0,0,1,213.91,11a4,4,0,0,1,.47,2v.32h-6.53v-.76h6l-.4.3a3,3,0,0,0-.37-1.41,2.56,2.56,0,0,0-2.34-1.35,2.7,2.7,0,0,0-1.39.36,2.54,2.54,0,0,0-.95,1,3,3,0,0,0-.35,1.47v.16a2.91,2.91,0,0,0,.38,1.5,2.62,2.62,0,0,0,1.06,1A3.21,3.21,0,0,0,211,16a3.5,3.5,0,0,0,1.28-.24,2.62,2.62,0,0,0,1-.74l.57.66a3.31,3.31,0,0,1-1.25.91A4.34,4.34,0,0,1,211,16.89Z"/><path d="M218.67,16.89a5.52,5.52,0,0,1-1.76-.26,4,4,0,0,1-1.3-.67l.46-.8a4.32,4.32,0,0,0,1.17.6,4.77,4.77,0,0,0,1.5.25,2.7,2.7,0,0,0,1.55-.34,1,1,0,0,0,.47-.89.84.84,0,0,0-.27-.65,1.64,1.64,0,0,0-.69-.36,8.45,8.45,0,0,0-1-.21c-.35-.05-.7-.12-1.05-.2a3.57,3.57,0,0,1-.95-.33,1.67,1.67,0,0,1-1-1.61,1.81,1.81,0,0,1,.34-1.1,2.22,2.22,0,0,1,1-.76,4.1,4.1,0,0,1,1.62-.28,5.68,5.68,0,0,1,1.48.2,4,4,0,0,1,1.21.51l-.45.81a3.58,3.58,0,0,0-1.07-.49,4.41,4.41,0,0,0-1.14-.15,2.55,2.55,0,0,0-1.5.35,1,1,0,0,0-.47.89.87.87,0,0,0,.26.68,1.82,1.82,0,0,0,.7.37,6.9,6.9,0,0,0,1,.23,9.82,9.82,0,0,1,1,.2,4.35,4.35,0,0,1,1,.33,1.74,1.74,0,0,1,.7.59,1.69,1.69,0,0,1,.26,1,1.86,1.86,0,0,1-.36,1.14,2.33,2.33,0,0,1-1.06.74A4.47,4.47,0,0,1,218.67,16.89Z"/><path class="cls-1" d="M110,64.68a2.48,2.48,0,0,1-1.4-.4,2.77,2.77,0,0,1-1-1.17,5,5,0,0,1,0-3.71,2.77,2.77,0,0,1,1-1.17,2.66,2.66,0,0,1,2.8,0,2.77,2.77,0,0,1,1,1.17,5.06,5.06,0,0,1,0,3.71,2.77,2.77,0,0,1-1,1.17A2.48,2.48,0,0,1,110,64.68Zm0-.85a1.63,1.63,0,0,0,.93-.29,1.91,1.91,0,0,0,.62-.86,4.78,4.78,0,0,0,0-2.85,1.91,1.91,0,0,0-.62-.86,1.63,1.63,0,0,0-.93-.29,1.52,1.52,0,0,0-.92.29,1.86,1.86,0,0,0-.63.86,4.78,4.78,0,0,0,0,2.85,1.86,1.86,0,0,0,.63.86A1.52,1.52,0,0,0,110,63.83Z"/><path class="cls-1" d="M117,64.68a3.72,3.72,0,0,1-1.4-.24,2.14,2.14,0,0,1-.92-.68,1.72,1.72,0,0,1-.32-1,1.63,1.63,0,0,1,.31-1,1.79,1.79,0,0,1,.9-.63,4.84,4.84,0,0,1,2.87,0,2,2,0,0,1,.92.64,1.63,1.63,0,0,1,.31,1,1.72,1.72,0,0,1-.32,1.05,2.11,2.11,0,0,1-.93.68A3.81,3.81,0,0,1,117,64.68Zm0-3.31a3.84,3.84,0,0,1-1.3-.2,1.88,1.88,0,0,1-.82-.6,1.52,1.52,0,0,1-.29-.92,1.63,1.63,0,0,1,.31-1,2,2,0,0,1,.84-.63,3.82,3.82,0,0,1,2.54,0,2,2,0,0,1,.85.63,1.56,1.56,0,0,1,.3,1,1.52,1.52,0,0,1-.28.92,1.79,1.79,0,0,1-.83.6A4,4,0,0,1,117,61.37Zm0,2.54a2.1,2.1,0,0,0,1.29-.33,1,1,0,0,0,.46-.9,1,1,0,0,0-.46-.87,2.09,2.09,0,0,0-1.26-.32,2,2,0,0,0-1.24.32,1,1,0,0,0-.45.87,1.07,1.07,0,0,0,.45.9A2.07,2.07,0,0,0,117,63.91Zm0-3.15a1.86,1.86,0,0,0,1.1-.29,1,1,0,0,0,.18-1.4.77.77,0,0,0-.18-.18,1.91,1.91,0,0,0-1.09-.28,1.82,1.82,0,0,0-1.06.28,1,1,0,0,0-.18,1.4.77.77,0,0,0,.18.18A1.85,1.85,0,0,0,117,60.76Z"/><path class="cls-1" d="M121.94,60.8a.66.66,0,0,1-.46-.19.68.68,0,0,1,0-.94.67.67,0,0,1,.91,0,.7.7,0,0,1,0,.94A.64.64,0,0,1,121.94,60.8Zm0,3.86a.63.63,0,0,1-.65-.61v0a.59.59,0,0,1,.19-.47.67.67,0,0,1,.91,0,.65.65,0,0,1,.18.47.7.7,0,0,1-.18.48A.63.63,0,0,1,121.94,64.66Z"/><path class="cls-1" d="M126.29,64.68a4.23,4.23,0,0,1-1.37-.22,3.21,3.21,0,0,1-1.09-.59l.44-.76a2.8,2.8,0,0,0,.88.52,3.38,3.38,0,0,0,1.14.2,1.91,1.91,0,0,0,1.16-.32,1,1,0,0,0,.42-.87,1,1,0,0,0-.4-.84,1.92,1.92,0,0,0-1.25-.32h-.54v-.67l2-2.45.13.38h-3.66v-.83h4.42v.65l-2,2.44-.5-.3h.32a2.61,2.61,0,0,1,1.82.55,1.78,1.78,0,0,1,.61,1.38,2.06,2.06,0,0,1-.28,1,1.83,1.83,0,0,1-.84.74A3.26,3.26,0,0,1,126.29,64.68Z"/><path class="cls-1" d="M133.2,64.68a2.48,2.48,0,0,1-1.4-.4,2.77,2.77,0,0,1-1-1.17,5,5,0,0,1,0-3.71,2.77,2.77,0,0,1,1-1.17,2.65,2.65,0,0,1,2.79,0,2.7,2.7,0,0,1,1,1.17,5.06,5.06,0,0,1,0,3.71,2.7,2.7,0,0,1-1,1.17A2.45,2.45,0,0,1,133.2,64.68Zm0-.85a1.52,1.52,0,0,0,.92-.29,1.84,1.84,0,0,0,.62-.86,4.48,4.48,0,0,0,0-2.85,1.84,1.84,0,0,0-.62-.86,1.52,1.52,0,0,0-.92-.29,1.63,1.63,0,0,0-.93.29,1.86,1.86,0,0,0-.63.86,4.78,4.78,0,0,0,0,2.85,1.86,1.86,0,0,0,.63.86A1.63,1.63,0,0,0,133.2,63.83Z"/><path class="cls-1" d="M142.82,64.66a2.31,2.31,0,0,1-1-.19,1.53,1.53,0,0,1-.65-.53,1.27,1.27,0,0,1-.23-.77,1.52,1.52,0,0,1,.19-.75,1.38,1.38,0,0,1,.64-.53,2.89,2.89,0,0,1,1.2-.2h1.61v.66H143a1.33,1.33,0,0,0-.93.23.72.72,0,0,0-.24.55.71.71,0,0,0,.3.6A1.32,1.32,0,0,0,143,64a1.71,1.71,0,0,0,.91-.23,1.27,1.27,0,0,0,.56-.67l.18.64a1.47,1.47,0,0,1-.64.71A2.42,2.42,0,0,1,142.82,64.66Zm1.66-.06V61.48a1.21,1.21,0,0,0-.34-.9,1.45,1.45,0,0,0-1-.32,2.62,2.62,0,0,0-.88.15,2.26,2.26,0,0,0-.73.4l-.38-.69a2.82,2.82,0,0,1,.94-.49,4,4,0,0,1,1.15-.16,2.35,2.35,0,0,1,1.61.5,2,2,0,0,1,.57,1.55v3.06Z"/><path class="cls-1" d="M151.86,64.6V58.29l.41.45h-1.92v-.83h2.46V64.6Z"/><path class="cls-1" d="M157.07,64.68a4.23,4.23,0,0,1-1.37-.22,3,3,0,0,1-1.09-.59l.44-.76a3,3,0,0,0,.87.52,3.48,3.48,0,0,0,1.15.2,1.91,1.91,0,0,0,1.16-.32,1,1,0,0,0,.42-.87,1,1,0,0,0-.4-.84,1.92,1.92,0,0,0-1.25-.32h-.54v-.67l2-2.45.13.38h-3.66v-.83h4.42v.65l-2,2.44-.5-.3h.32a2.66,2.66,0,0,1,1.82.55,1.78,1.78,0,0,1,.61,1.38,2.06,2.06,0,0,1-.28,1,1.89,1.89,0,0,1-.84.74A3.26,3.26,0,0,1,157.07,64.68Z"/><path class="cls-1" d="M161.88,60.8a.66.66,0,0,1-.46-.19.65.65,0,0,1,0-.92.66.66,0,0,1,.48-.2.63.63,0,0,1,.45.18.7.7,0,0,1,0,.94A.64.64,0,0,1,161.88,60.8Zm0,3.86a.65.65,0,0,1-.46-.18.71.71,0,0,1-.19-.48.63.63,0,0,1,.61-.65h0a.63.63,0,0,1,.45.18.65.65,0,0,1,.18.47.72.72,0,0,1-.22.48A.64.64,0,0,1,161.88,64.66Z"/><path class="cls-1" d="M166.91,64.68a2.48,2.48,0,0,1-1.4-.4,2.77,2.77,0,0,1-1-1.17,5,5,0,0,1,0-3.71,2.77,2.77,0,0,1,1-1.17,2.66,2.66,0,0,1,2.8,0,2.7,2.7,0,0,1,1,1.17,5.06,5.06,0,0,1,0,3.71,2.7,2.7,0,0,1-1,1.17A2.48,2.48,0,0,1,166.91,64.68Zm0-.85a1.63,1.63,0,0,0,.93-.29,1.91,1.91,0,0,0,.62-.86,4.78,4.78,0,0,0,0-2.85,1.91,1.91,0,0,0-.62-.86,1.63,1.63,0,0,0-.93-.29A1.52,1.52,0,0,0,166,59a1.86,1.86,0,0,0-.63.86,4.78,4.78,0,0,0,0,2.85,1.86,1.86,0,0,0,.63.86A1.52,1.52,0,0,0,166.91,63.83Z"/><path class="cls-1" d="M174.05,64.68a2.48,2.48,0,0,1-1.4-.4,2.77,2.77,0,0,1-1-1.17,5,5,0,0,1,0-3.71,2.77,2.77,0,0,1,1-1.17,2.62,2.62,0,0,1,3.8,1.17,5,5,0,0,1,0,3.71,2.65,2.65,0,0,1-1,1.17A2.48,2.48,0,0,1,174.05,64.68Zm0-.85a1.52,1.52,0,0,0,.92-.29,1.84,1.84,0,0,0,.62-.86,4.48,4.48,0,0,0,0-2.85A1.84,1.84,0,0,0,175,59a1.52,1.52,0,0,0-.92-.29,1.63,1.63,0,0,0-.93.29,1.77,1.77,0,0,0-.62.86,4.48,4.48,0,0,0,0,2.85,1.77,1.77,0,0,0,.62.86A1.63,1.63,0,0,0,174.05,63.83Z"/><path d="M111.65,51.64a6.5,6.5,0,0,1-2.14-.36,4.11,4.11,0,0,1-1.58-.94l.41-.81a4.27,4.27,0,0,0,1.43.86,5.27,5.27,0,0,0,1.88.35,4.18,4.18,0,0,0,1.53-.23,1.79,1.79,0,0,0,.87-.64,1.49,1.49,0,0,0,.28-.89A1.31,1.31,0,0,0,114,48a2.4,2.4,0,0,0-.88-.56,9.8,9.8,0,0,0-1.2-.37c-.44-.1-.88-.21-1.32-.34a5.24,5.24,0,0,1-1.21-.47,2.59,2.59,0,0,1-.88-.8,2.27,2.27,0,0,1-.34-1.29,2.43,2.43,0,0,1,.4-1.36,2.66,2.66,0,0,1,1.2-1,4.82,4.82,0,0,1,2.09-.38,6.29,6.29,0,0,1,1.67.23,5,5,0,0,1,1.43.65l-.36.85a4.55,4.55,0,0,0-1.36-.63,5,5,0,0,0-1.39-.2,4,4,0,0,0-1.49.24,1.85,1.85,0,0,0-.86.65,1.52,1.52,0,0,0-.28.92,1.31,1.31,0,0,0,.33.94,2.25,2.25,0,0,0,.89.56,8.42,8.42,0,0,0,1.21.36c.43.1.87.22,1.3.34a6.53,6.53,0,0,1,1.2.48,2.57,2.57,0,0,1,.89.78,2.18,2.18,0,0,1,.33,1.27,2.47,2.47,0,0,1-.39,1.35,2.74,2.74,0,0,1-1.23,1A4.87,4.87,0,0,1,111.65,51.64Z"/><path d="M119.78,51.63a3.73,3.73,0,0,1-1.47-.28,2.37,2.37,0,0,1-1-.77,2,2,0,0,1-.33-1.14,2.11,2.11,0,0,1,.31-1.06,2,2,0,0,1,.92-.78,4.29,4.29,0,0,1,1.7-.29h2.59v.76h-2.56a2.3,2.3,0,0,0-1.51.38,1.31,1.31,0,0,0-.08,1.85l.16.15a2.24,2.24,0,0,0,1.4.39,2.58,2.58,0,0,0,1.48-.4,2.21,2.21,0,0,0,.91-1.13l.23.7a2.36,2.36,0,0,1-1,1.18A3.26,3.26,0,0,1,119.78,51.63Zm2.58-.07V46.85a2,2,0,0,0-.54-1.47,2.18,2.18,0,0,0-1.59-.51,4.15,4.15,0,0,0-1.39.24,3.62,3.62,0,0,0-1.11.64l-.46-.75a3.83,3.83,0,0,1,1.37-.75,5.14,5.14,0,0,1,1.65-.27,3.27,3.27,0,0,1,2.25.72,2.85,2.85,0,0,1,.79,2.2v4.66Zm-3-8.68,2-1.77h1.36l-2.33,1.77Z"/><path d="M126.29,51.56V41h1v5.32l-.15,1.51.1,1.52v2.26Zm3.87.07a3.53,3.53,0,0,1-1.77-.45,3.19,3.19,0,0,1-1.24-1.31,4.86,4.86,0,0,1,0-4.15,3.19,3.19,0,0,1,1.25-1.3,3.58,3.58,0,0,1,1.75-.44,3.84,3.84,0,0,1,1.93.48,3.49,3.49,0,0,1,1.33,1.34,4.33,4.33,0,0,1,0,4,3.45,3.45,0,0,1-1.33,1.35A3.91,3.91,0,0,1,130.16,51.63Zm-.07-.9a2.75,2.75,0,0,0,1.43-.37,2.53,2.53,0,0,0,1-1,2.94,2.94,0,0,0,.37-1.53,3.11,3.11,0,0,0-.37-1.55,2.69,2.69,0,0,0-2.43-1.38,2.87,2.87,0,0,0-1.43.36,2.67,2.67,0,0,0-1,1,3.11,3.11,0,0,0-.37,1.55,2.94,2.94,0,0,0,.37,1.53,2.53,2.53,0,0,0,1,1,2.77,2.77,0,0,0,1.43.39Z"/><path d="M138.29,51.63a3.65,3.65,0,0,1-1.46-.28,2.23,2.23,0,0,1-1-.77,2.14,2.14,0,0,1,0-2.2,2,2,0,0,1,.91-.78,4.34,4.34,0,0,1,1.71-.29H141v.76h-2.56a2.3,2.3,0,0,0-1.51.38,1.31,1.31,0,0,0-.08,1.85l.16.15a2.24,2.24,0,0,0,1.4.39,2.66,2.66,0,0,0,1.48-.4,2.35,2.35,0,0,0,.91-1.13l.22.7a2.36,2.36,0,0,1-1,1.18A3.24,3.24,0,0,1,138.29,51.63Zm2.59-.07V46.85a2,2,0,0,0-.59-1.47,2.23,2.23,0,0,0-1.59-.51,4.15,4.15,0,0,0-1.39.24,3.42,3.42,0,0,0-1.11.64l-.46-.75a3.83,3.83,0,0,1,1.37-.75A5.38,5.38,0,0,1,138.8,44a3.27,3.27,0,0,1,2.25.72,2.85,2.85,0,0,1,.79,2.2v4.66Z"/><path d="M147.75,51.63a3.81,3.81,0,0,1-1.92-.49,3.45,3.45,0,0,1-1.33-1.35,4.33,4.33,0,0,1,0-4,3.56,3.56,0,0,1,1.33-1.31,3.91,3.91,0,0,1,1.92-.48,3.52,3.52,0,0,1,1.77.44,3.23,3.23,0,0,1,1.24,1.3,4.29,4.29,0,0,1,.47,2.08,4.36,4.36,0,0,1-.46,2.07,3.26,3.26,0,0,1-1.24,1.31A3.45,3.45,0,0,1,147.75,51.63Zm.08-.9a2.75,2.75,0,0,0,1.43-.37,2.53,2.53,0,0,0,1-1,2.94,2.94,0,0,0,.37-1.53,3.11,3.11,0,0,0-.37-1.55,2.67,2.67,0,0,0-1-1,2.87,2.87,0,0,0-1.43-.36,2.68,2.68,0,0,0-2.42,1.38,3.11,3.11,0,0,0-.37,1.55,2.94,2.94,0,0,0,.37,1.53,2.53,2.53,0,0,0,1,1,2.7,2.7,0,0,0,1.42.35Zm2.83.83V49.3l.1-1.52-.15-1.51V41h1V51.56Z"/><path d="M157.71,51.63a3.81,3.81,0,0,1-2-.5,3.6,3.6,0,0,1-1.36-1.35,4,4,0,0,1-.5-2,3.89,3.89,0,0,1,.5-2,3.54,3.54,0,0,1,1.36-1.3,4.22,4.22,0,0,1,4,0,3.5,3.5,0,0,1,1.36,1.34,4.33,4.33,0,0,1,0,4,3.53,3.53,0,0,1-1.36,1.35A4.08,4.08,0,0,1,157.71,51.63Zm0-.9a2.82,2.82,0,0,0,1.45-.37,2.53,2.53,0,0,0,1-1,3.15,3.15,0,0,0,.37-1.53,3.22,3.22,0,0,0-.37-1.55,2.67,2.67,0,0,0-1-1,3,3,0,0,0-2.86,0,2.82,2.82,0,0,0-1,1,3.11,3.11,0,0,0-.37,1.55,2.94,2.94,0,0,0,.37,1.53,2.53,2.53,0,0,0,1,1A2.68,2.68,0,0,0,157.71,50.73Z"/><rect class="cls-2" x="108.19" width="3.73" height="5.6"/><path d="M73.75,41.75V29.15h5.54a7.73,7.73,0,0,1,3.6.79,6,6,0,0,1,2.4,2.2,6.76,6.76,0,0,1,0,6.61A6,6,0,0,1,82.87,41a8,8,0,0,1-3.6.79Zm2.34-2h3.06a5.19,5.19,0,0,0,2.45-.54,4,4,0,0,0,1.61-1.51,4.88,4.88,0,0,0,0-4.55,4,4,0,0,0-1.61-1.5,5.19,5.19,0,0,0-2.45-.54H76.09Z"/><path d="M91,39.79h7.11v2H88.61V29.15h9.2v2H91Zm-.18-5.4H97v1.92H90.77Z"/><path d="M12.58,17.7H10.29V5.1h2.34Zm6.71-5.4h-6.9v-2h6.9Zm-.18-7.2h2.34V17.7H19.1Z"/><path d="M30.73,17.88A7.44,7.44,0,0,1,28,17.39,6.59,6.59,0,0,1,25.85,16,6,6,0,0,1,24.43,14a6.36,6.36,0,0,1-.51-2.58,6.4,6.4,0,0,1,.51-2.59,6,6,0,0,1,1.42-2A6.69,6.69,0,0,1,28,5.45a7.86,7.86,0,0,1,5.41,0,6.54,6.54,0,0,1,2.15,1.36,6,6,0,0,1,1.42,2,6.4,6.4,0,0,1,.51,2.59A6.4,6.4,0,0,1,37,14a6,6,0,0,1-1.42,2,6.52,6.52,0,0,1-2.15,1.35A7.28,7.28,0,0,1,30.73,17.88Zm0-2.06a4.5,4.5,0,0,0,1.74-.34,4.17,4.17,0,0,0,1.41-.93,4.47,4.47,0,0,0,1.26-3.17A4.51,4.51,0,0,0,34.8,9.6a4.36,4.36,0,0,0-.92-1.4,4.17,4.17,0,0,0-1.41-.93,5,5,0,0,0-3.52,0,4.23,4.23,0,0,0-1.4.93,4.42,4.42,0,0,0-.94,1.4,4.78,4.78,0,0,0-.32,1.8,4.62,4.62,0,0,0,.33,1.76,4.55,4.55,0,0,0,.93,1.41A4.17,4.17,0,0,0,29,15.5a4.56,4.56,0,0,0,1.75.32Z"/><path d="M40,17.7V5.1h5.18A6.91,6.91,0,0,1,48,5.64a4.15,4.15,0,0,1,1.85,1.54,4.4,4.4,0,0,1,.65,2.4A4.25,4.25,0,0,1,49.88,12,4,4,0,0,1,48,13.48a6.9,6.9,0,0,1-2.87.53H41.29l1-1V17.7Zm2.31-4.49-1-1.11h3.79a3.51,3.51,0,0,0,2.31-.62,2.29,2.29,0,0,0,.78-1.85,2.31,2.31,0,0,0-.78-1.86,3.64,3.64,0,0,0-2.33-.64H41.29l1-1.21Zm5.9,4.49L45,13.13h2.5l3.2,4.57Z"/><path d="M51.35,17.7,57,5.1h2.27L65,17.7H62.57L57.69,6.34h.94L53.77,17.7ZM54,14.78l.63-1.84H61.4L62,14.78Z"/><path d="M66.62,17.7V5.1H71.8a6.91,6.91,0,0,1,2.87.54,4.15,4.15,0,0,1,1.85,1.54,4.4,4.4,0,0,1,.65,2.4A4.25,4.25,0,0,1,76.52,12a4,4,0,0,1-1.85,1.52A6.9,6.9,0,0,1,71.8,14H67.91l1-1.06v4.74ZM69,13.21,68,12.1h3.73A3.48,3.48,0,0,0,74,11.48a2.29,2.29,0,0,0,.78-1.85A2.31,2.31,0,0,0,74,7.77a3.63,3.63,0,0,0-2.34-.69H67.91l1-1.16Zm5.9,4.49-3.18-4.57h2.5l3.2,4.57Z"/><path d="M79.78,17.7V5.1h2.34V17.7Z"/><path d="M91.42,17.88a7.44,7.44,0,0,1-2.72-.49A6.69,6.69,0,0,1,86.54,16,6.19,6.19,0,0,1,85.12,14a6.55,6.55,0,0,1-.5-2.58,6.57,6.57,0,0,1,.5-2.59,6.4,6.4,0,0,1,1.42-2A6.87,6.87,0,0,1,88.7,5.45a7.86,7.86,0,0,1,5.41,0,6.75,6.75,0,0,1,2.18,1.31,6.13,6.13,0,0,1,1.4,2.05,6.57,6.57,0,0,1,.5,2.59,6.57,6.57,0,0,1-.5,2.59,6.13,6.13,0,0,1-1.4,2,6.36,6.36,0,0,1-2.15,1.35A7.44,7.44,0,0,1,91.42,17.88Zm0-2.06a4.58,4.58,0,0,0,1.75-.34,4,4,0,0,0,1.4-.93,4.23,4.23,0,0,0,.93-1.4,4.45,4.45,0,0,0,.33-1.77A4.54,4.54,0,0,0,95.5,9.6a4.23,4.23,0,0,0-.93-1.4,4.13,4.13,0,0,0-1.4-.93A4.86,4.86,0,0,0,91.4,7a4.76,4.76,0,0,0-1.75.32,4.23,4.23,0,0,0-1.4.93,4.15,4.15,0,0,0-1,1.42A4.54,4.54,0,0,0,87,11.4a4.62,4.62,0,0,0,.33,1.76,4.22,4.22,0,0,0,1,1.41,4,4,0,0,0,1.4.93,4.72,4.72,0,0,0,1.71.32Z"/><path d="M0,64.7,5.67,52.1H8l5.68,12.6H11.22L6.34,53.34h1L2.41,64.7Zm2.61-2.92.68-1.84H10.1l.63,1.84Z"/><path d="M17.19,64.7V54.08H13v-2H23.71v2H19.53V64.7Z"/><path d="M27.81,62.73h7.11v2H25.47V52.1h9.2v2H27.81Zm-.18-5.39H33.9v1.92H27.63Z"/><path d="M37.53,64.7V52.1h1.93l7.9,9.7h-1V52.1h2.32V64.7H46.8L38.9,55h1V64.7Z"/><path d="M57.94,64.88a7.27,7.27,0,0,1-2.65-.48,6.32,6.32,0,0,1-2.14-1.35A6.13,6.13,0,0,1,51.73,61a7,7,0,0,1,0-5.19,6.16,6.16,0,0,1,1.43-2.06,6.6,6.6,0,0,1,2.13-1.35A7.46,7.46,0,0,1,58,51.92a7.35,7.35,0,0,1,2.82.56A5.53,5.53,0,0,1,63,54.05l-1.51,1.43A4.5,4.5,0,0,0,58.07,54a4.87,4.87,0,0,0-1.81.32,4.2,4.2,0,0,0-2.36,2.32,5,5,0,0,0,0,3.57,4.21,4.21,0,0,0,2.39,2.26,4.87,4.87,0,0,0,1.81.32,4.59,4.59,0,0,0,1.8-.32,4.52,4.52,0,0,0,1.54-1.13L63,62.79a5.9,5.9,0,0,1-2.16,1.57A7.31,7.31,0,0,1,57.94,64.88Z"/><path d="M65.2,64.7V52.1h2.34V64.7Z"/><path d="M76.84,64.88a7.44,7.44,0,0,1-2.72-.49A6.69,6.69,0,0,1,72,63a6,6,0,0,1-1.42-2,6.9,6.9,0,0,1,0-5.17,6.4,6.4,0,0,1,1.42-2,6.87,6.87,0,0,1,2.16-1.36,7.86,7.86,0,0,1,5.41,0,6.54,6.54,0,0,1,2.15,1.36,6.06,6.06,0,0,1,1.43,2,7,7,0,0,1,0,5.18,6,6,0,0,1-1.43,2.05,6.36,6.36,0,0,1-2.15,1.35A7.45,7.45,0,0,1,76.84,64.88Zm0-2.06a4.58,4.58,0,0,0,1.75-.34,4,4,0,0,0,1.4-.93,4.23,4.23,0,0,0,.93-1.4,4.62,4.62,0,0,0,0-3.53,4.23,4.23,0,0,0-.93-1.4,4.13,4.13,0,0,0-1.4-.93A4.86,4.86,0,0,0,76.86,54a4.76,4.76,0,0,0-1.75.32,4.23,4.23,0,0,0-1.4.93,4,4,0,0,0-.94,1.4,4.91,4.91,0,0,0,0,3.54,4.17,4.17,0,0,0,.93,1.41,4,4,0,0,0,1.4.93,4.6,4.6,0,0,0,1.72.32ZM75.29,51.07l2.43-2.46h2.67l-3.1,2.46Z"/><path d="M86.09,64.7V52.1H88l7.9,9.7H95V52.1h2.32V64.7H95.36L87.46,55h1V64.7Z"/><line class="cls-3" x1="7.29" y1="36.43" x2="64.29" y2="36.43"/></svg>