<svg id="Capa_1" data-name="Capa 1" xmlns="http://www.w3.org/2000/svg" viewBox="0 0 62 62"><defs><style>.cls-1{fill:red;}.cls-2{fill:#fff;}</style></defs><title>contactoS</title><circle class="cls-1" cx="31" cy="31" r="30"/><path class="cls-2" d="M40.31,19.65a2.07,2.07,0,1,0,2.06,2.06A2.06,2.06,0,0,0,40.31,19.65Z"/><path class="cls-2" d="M31.14,22.3A8.66,8.66,0,1,0,39.81,31,8.67,8.67,0,0,0,31.14,22.3Zm0,14.21A5.55,5.55,0,1,1,36.69,31,5.55,5.55,0,0,1,31.14,36.51Z"/><path class="cls-2" d="M38,48.55H24A10.58,10.58,0,0,1,13.41,38v-14A10.58,10.58,0,0,1,24,13.37H38A10.58,10.58,0,0,1,48.59,23.94V38A10.58,10.58,0,0,1,38,48.55ZM24,16.68a7.27,7.27,0,0,0-7.26,7.26V38A7.27,7.27,0,0,0,24,45.24H38A7.27,7.27,0,0,0,45.28,38v-14A7.27,7.27,0,0,0,38,16.68Z"/></svg>