<svg id="Capa_1" data-name="Capa 1" xmlns="http://www.w3.org/2000/svg" viewBox="0 0 62 62"><defs><style>.cls-1{fill:red;}.cls-2{fill:#fff;fill-rule:evenodd;}</style></defs><title>contactoS</title><circle class="cls-1" cx="31" cy="31" r="30"/><path class="cls-2" d="M45.6,37.29c-.81-.4-4.73-2.32-5.46-2.58s-1.27-.4-1.8.39-2.08,2.58-2.54,3.1-.93.6-1.74.2a21.64,21.64,0,0,1-6.42-3.94A23.46,23.46,0,0,1,23.2,29c-.46-.79-.05-1.22.35-1.61s.79-.93,1.2-1.39L25,25.6a9.08,9.08,0,0,0,.51-1,1.44,1.44,0,0,0-.06-1.39c-.2-.4-1.8-4.3-2.48-5.89s-1.32-1.31-1.8-1.31-1-.08-1.52-.08a3,3,0,0,0-2.14,1,8.92,8.92,0,0,0-2.79,6.63,10.26,10.26,0,0,0,.41,2.7A17.91,17.91,0,0,0,18,31.79c.39.52,5.52,8.79,13.64,12s8.13,2.11,9.6,2S46,43.83,46.65,42a6.55,6.55,0,0,0,.47-3.77C46.93,37.88,46.39,37.68,45.6,37.29Z"/></svg>