<svg id="Capa_1" data-name="Capa 1" xmlns="http://www.w3.org/2000/svg" viewBox="0 0 62 62"><defs><style>.cls-1{fill:red;}.cls-2,.cls-3{fill:#fff;}.cls-3{fill-rule:evenodd;}</style></defs><title>contactoS</title><circle class="cls-1" cx="31" cy="31" r="30" transform="translate(-12.7 27.46) rotate(-40.37)"/><path class="cls-2" d="M13.6,48.44l2.5-9.33A17.28,17.28,0,1,1,23,45.93Zm9.85-6,.59.36A14,14,0,1,0,19.24,38l.36.6-1.39,5.21Z"/><path class="cls-3" d="M37.38,33.5a2.89,2.89,0,0,0-2.47-.56c-.64.26-1,1.27-1.46,1.78a.63.63,0,0,1-.8.17,11.13,11.13,0,0,1-5.57-4.78.67.67,0,0,1,.08-.93,3.8,3.8,0,0,0,1-1.65,3.59,3.59,0,0,0-.46-1.94,4.53,4.53,0,0,0-1.44-2.17,1.94,1.94,0,0,0-2.13.32,4.31,4.31,0,0,0-1.51,3.44,4.4,4.4,0,0,0,.14,1.09,8.75,8.75,0,0,0,1,2.41,18.5,18.5,0,0,0,1.1,1.67,16.58,16.58,0,0,0,4.74,4.4,13.87,13.87,0,0,0,3,1.41,6.55,6.55,0,0,0,3.44.54,4.17,4.17,0,0,0,3.12-2.32,2,2,0,0,0,.14-1.19C39.15,34.38,38,33.89,37.38,33.5Z"/></svg>