<?xml version="1.0" encoding="utf-8"?>
<!-- Generator: Adobe Illustrator 24.0.1, SVG Export Plug-In . SVG Version: 6.00 Build 0)  -->
<svg version="1.1" id="Capa_1" xmlns="http://www.w3.org/2000/svg" xmlns:xlink="http://www.w3.org/1999/xlink" x="0px" y="0px"
	 viewBox="0 0 62 62" style="enable-background:new 0 0 62 62;" xml:space="preserve">
<style type="text/css">
	.st0{fill:#3DC24F;}
	.st1{fill:#FFFFFF;}
	.st2{fill-rule:evenodd;clip-rule:evenodd;fill:#FFFFFF;}
</style>
<title>contactoS</title>
<circle class="st0" cx="31" cy="31" r="30"/>
<path class="st1" d="M13.6,48.4l2.5-9.3c-4.6-8.3-1.6-18.9,6.7-23.5s18.9-1.6,23.5,6.7s1.6,18.9-6.7,23.5
	c-5.2,2.9-11.4,2.9-16.6,0.1L13.6,48.4z M23.5,42.4l0.6,0.4c6.6,4,15.2,1.8,19.2-4.8s1.8-15.2-4.8-19.2S23.2,17,19.2,23.6
	c-2.7,4.4-2.7,10,0,14.4l0.4,0.6l-1.4,5.2L23.5,42.4z"/>
<path class="st2" d="M37.4,33.5c-0.7-0.6-1.6-0.8-2.5-0.6c-0.6,0.3-1,1.3-1.5,1.8c-0.2,0.2-0.5,0.3-0.8,0.2
	c-2.3-0.9-4.3-2.6-5.6-4.8c-0.2-0.3-0.2-0.7,0.1-0.9c0.5-0.5,0.8-1,1-1.6c0-0.7-0.1-1.3-0.5-1.9c-0.3-0.8-0.8-1.6-1.4-2.2
	c-0.7-0.3-1.5-0.2-2.1,0.3c-1,0.9-1.6,2.1-1.5,3.4c0,0.4,0,0.7,0.1,1.1c0.2,0.8,0.5,1.7,1,2.4c0.3,0.6,0.7,1.1,1.1,1.7
	c1.3,1.8,2.9,3.3,4.7,4.4c0.9,0.6,1.9,1.1,3,1.4c1.1,0.5,2.3,0.7,3.4,0.5c1.4-0.2,2.5-1.1,3.1-2.3c0.2-0.4,0.2-0.8,0.1-1.2
	C39.2,34.4,38,33.9,37.4,33.5z"/>
</svg>
